<svg xmlns="http://www.w3.org/2000/svg" width="190" height="141" viewBox="0 0 190 141" fill="none"><path d="M143.77 112.665C153.488 112.665 161.366 104.786 161.366 95.0669C161.366 85.3477 153.488 77.4688 143.77 77.4688C134.052 77.4688 126.174 85.3477 126.174 95.0669C126.174 104.786 134.052 112.665 143.77 112.665Z" fill="#50C878"></path><path d="M17.7983 37.1939C8.33325 37.1939 0.500061 29.2994 0.500061 19.5957C0.500061 9.89212 8.33325 2.16211 17.7983 2.16211H105.595C93.6823 8.57637 82.5853 16.7998 72.7938 26.5034C69.53 29.6283 66.4294 33.2466 63.3287 37.0294L17.7983 37.1939Z" fill="#92DDAB"></path><path d="M65.8231 140.559C65.1697 140.559 64.6796 140.56 64.0262 140.396C55.2053 139.58 48.5079 131.744 48.5079 122.765C48.5079 114.276 49.488 105.787 51.1215 97.6244C52.9184 89.4618 55.3686 81.4625 58.799 73.7897C62.2294 66.1168 66.3131 58.7705 71.0503 52.0772C75.134 46.3634 79.7078 40.9761 84.6083 36.0786C93.4293 27.263 103.394 20.0799 114.175 14.3661C125.609 8.32582 138.514 3.91804 152.399 1.46926C157.299 0.653006 162.2 0.163251 167.264 0C167.754 0 168.08 0 168.57 0C171.347 0 173.471 0.163251 175.431 0.653006C181.802 1.95902 187.029 6.85656 188.826 13.0601C189.153 14.3661 189.316 15.5089 189.479 16.8149C189.643 19.9167 188.826 22.8552 187.519 25.4672C187.192 26.2835 186.702 26.9365 186.049 27.5895C184.415 29.875 182.128 31.6708 179.678 32.8135C176.575 34.2828 173.308 34.6093 170.367 34.6093C168.08 34.6093 165.14 34.7726 162.363 35.0991C155.339 35.9153 148.315 37.5478 141.618 39.9966C132.797 43.2616 124.956 47.5062 118.422 52.7302C115.155 55.3422 111.888 58.2808 107.967 62.1988C105.027 65.1373 101.923 68.5656 99.3099 72.3204C96.6963 76.0752 94.4094 79.83 92.6125 83.748C91.1424 86.5233 89.9989 89.4618 88.8554 92.5636C85.2617 102.359 83.4649 112.644 83.4649 123.092C83.3015 132.723 75.4607 140.559 65.8231 140.559Z" fill="url(#paint0_linear_111_1326)"></path><defs><linearGradient id="paint0_linear_111_1326" x1="189.777" y1="-2.00195e-06" x2="120.861" y2="169.937" gradientUnits="userSpaceOnUse"><stop offset="0.50649" stop-color="#50C878"></stop><stop offset="1" stop-color="#7CD69A"></stop></linearGradient></defs></svg>